# xmcd
#
# Track frame offsets:
# 150
# 16055
# 26287
# 44895
# 54995
# 68047
# 79345
# 92122
# 110407
# 119937
# 138207
#
# Disc length: 2187 seconds
#
#
# Revision: 0
# Processed by: cddbd v1.5.1PL2 Copyright (c) Steve Scherf et al.
# Submitted via: FreeRIP 2.943 
#
DISCID=9308890b
DTITLE=Halonen blues bank Hand - Hand
DYEAR=1995
DGENRE=Blues
TTITLE0=Miss you
TTITLE1=Snm
TTITLE2=I need you
TTITLE3=Fullmoon cha-cha
TTITLE4=Roseline
TTITLE5=Evaduda
TTITLE6=Ampty barn
TTITLE7=Don't bring me down
TTITLE8=Hello my baby
TTITLE9=Three stops to Paris
TTITLE10=Fat forty Marianne is drunk
EXTD=
EXTT0=
EXTT1=
EXTT2=
EXTT3=
EXTT4=
EXTT5=
EXTT6=
EXTT7=
EXTT8=
EXTT9=
EXTT10=
PLAYORDER=
